<mxfile host="Electron" modified="2024-06-25T15:27:34.823Z" agent="Mozilla/5.0 (Windows NT 10.0; Win64; x64) AppleWebKit/537.36 (KHTML, like Gecko) draw.io/24.6.1 Chrome/124.0.6367.207 Electron/30.0.6 Safari/537.36" version="24.6.1" etag="rOz748CYorR88LTX7rUK" type="device">
  <diagram id="d-XdmY2RUlaUHNsYefqp" name="第 1 页">
    <mxGraphModel dx="1294" dy="826" grid="1" gridSize="10" guides="1" tooltips="1" connect="1" arrows="1" fold="1" page="1" pageScale="1" pageWidth="827" pageHeight="1169" math="0" shadow="0">
      <root>
        <mxCell id="0" />
        <mxCell id="1" parent="0" />
        <mxCell id="tpnDDfJuSR5OSDZnDv4p-1" value="&lt;pre style=&quot;background-color: rgb(255, 255, 255); font-family: &amp;quot;JetBrains Mono&amp;quot;, monospace; font-size: 9.8pt;&quot;&gt;ClientWebSocketListener&lt;/pre&gt;" style="rounded=1;whiteSpace=wrap;html=1;" vertex="1" parent="1">
          <mxGeometry x="60" y="311" width="170" height="60" as="geometry" />
        </mxCell>
        <mxCell id="tpnDDfJuSR5OSDZnDv4p-2" value="" style="rounded=1;whiteSpace=wrap;html=1;" vertex="1" parent="1">
          <mxGeometry x="294" y="200" width="386" height="290" as="geometry" />
        </mxCell>
        <mxCell id="tpnDDfJuSR5OSDZnDv4p-3" value="&lt;span style=&quot;color: rgb(0, 0, 0); font-family: Helvetica; font-size: 12px; font-style: normal; font-variant-ligatures: normal; font-variant-caps: normal; font-weight: 400; letter-spacing: normal; orphans: 2; text-align: center; text-indent: 0px; text-transform: none; widows: 2; word-spacing: 0px; -webkit-text-stroke-width: 0px; white-space: normal; background-color: rgb(251, 251, 251); text-decoration-thickness: initial; text-decoration-style: initial; text-decoration-color: initial; display: inline !important; float: none;&quot;&gt;WebSocketClient&lt;/span&gt;" style="text;whiteSpace=wrap;html=1;" vertex="1" parent="1">
          <mxGeometry x="430" y="500" width="130" height="40" as="geometry" />
        </mxCell>
        <mxCell id="tpnDDfJuSR5OSDZnDv4p-4" value="消息发送队列" style="rounded=1;whiteSpace=wrap;html=1;" vertex="1" parent="1">
          <mxGeometry x="330" y="261" width="120" height="60" as="geometry" />
        </mxCell>
        <mxCell id="tpnDDfJuSR5OSDZnDv4p-5" value="消息发送线程" style="rounded=1;whiteSpace=wrap;html=1;" vertex="1" parent="1">
          <mxGeometry x="520" y="230" width="120" height="60" as="geometry" />
        </mxCell>
        <mxCell id="tpnDDfJuSR5OSDZnDv4p-6" value="&lt;pre style=&quot;background-color:#ffffff;color:#080808;font-family:&#39;Microsoft YaHei UI&#39;;font-size:9.0pt;&quot;&gt;UnsafeOkHttpClient&lt;/pre&gt;" style="rounded=1;whiteSpace=wrap;html=1;" vertex="1" parent="1">
          <mxGeometry x="520" y="340" width="120" height="60" as="geometry" />
        </mxCell>
        <mxCell id="tpnDDfJuSR5OSDZnDv4p-7" value="" style="shape=flexArrow;endArrow=classic;html=1;rounded=0;" edge="1" parent="1">
          <mxGeometry width="50" height="50" relative="1" as="geometry">
            <mxPoint x="140" y="370" as="sourcePoint" />
            <mxPoint x="140" y="490" as="targetPoint" />
          </mxGeometry>
        </mxCell>
        <mxCell id="tpnDDfJuSR5OSDZnDv4p-8" value="&lt;pre style=&quot;background-color: rgb(255, 255, 255); font-family: &amp;quot;JetBrains Mono&amp;quot;, monospace; font-size: 9.8pt;&quot;&gt;&lt;br&gt;&lt;/pre&gt;" style="rounded=1;whiteSpace=wrap;html=1;" vertex="1" parent="1">
          <mxGeometry x="30" y="510" width="230" height="170" as="geometry" />
        </mxCell>
        <mxCell id="tpnDDfJuSR5OSDZnDv4p-9" value="Actor" style="shape=umlActor;verticalLabelPosition=bottom;verticalAlign=top;html=1;outlineConnect=0;" vertex="1" parent="1">
          <mxGeometry x="384" y="30" width="30" height="60" as="geometry" />
        </mxCell>
        <mxCell id="tpnDDfJuSR5OSDZnDv4p-10" value="" style="shape=flexArrow;endArrow=classic;html=1;rounded=0;entryX=0.561;entryY=0.006;entryDx=0;entryDy=0;entryPerimeter=0;" edge="1" parent="1" target="tpnDDfJuSR5OSDZnDv4p-4">
          <mxGeometry width="50" height="50" relative="1" as="geometry">
            <mxPoint x="397" y="120" as="sourcePoint" />
            <mxPoint x="230" y="70" as="targetPoint" />
          </mxGeometry>
        </mxCell>
        <mxCell id="tpnDDfJuSR5OSDZnDv4p-11" value="" style="shape=flexArrow;endArrow=classic;html=1;rounded=0;entryX=1;entryY=0.5;entryDx=0;entryDy=0;" edge="1" parent="1" source="tpnDDfJuSR5OSDZnDv4p-2" target="tpnDDfJuSR5OSDZnDv4p-1">
          <mxGeometry width="50" height="50" relative="1" as="geometry">
            <mxPoint x="210" y="440" as="sourcePoint" />
            <mxPoint x="260" y="390" as="targetPoint" />
          </mxGeometry>
        </mxCell>
        <mxCell id="tpnDDfJuSR5OSDZnDv4p-12" value="消息通知" style="text;whiteSpace=wrap;html=1;" vertex="1" parent="1">
          <mxGeometry x="120" y="271" width="130" height="40" as="geometry" />
        </mxCell>
        <mxCell id="tpnDDfJuSR5OSDZnDv4p-13" value="&lt;pre style=&quot;forced-color-adjust: none; color: rgb(0, 0, 0); font-style: normal; font-variant-ligatures: normal; font-variant-caps: normal; font-weight: 400; letter-spacing: normal; orphans: 2; text-align: center; text-indent: 0px; text-transform: none; widows: 2; word-spacing: 0px; -webkit-text-stroke-width: 0px; text-decoration-thickness: initial; text-decoration-style: initial; text-decoration-color: initial; background-color: rgb(255, 255, 255); font-family: &amp;quot;JetBrains Mono&amp;quot;, monospace; font-size: 9.8pt;&quot;&gt;消息分发处理&lt;/pre&gt;" style="text;whiteSpace=wrap;html=1;" vertex="1" parent="1">
          <mxGeometry x="80" y="680" width="110" height="70" as="geometry" />
        </mxCell>
        <mxCell id="tpnDDfJuSR5OSDZnDv4p-14" value="状态机" style="rounded=1;whiteSpace=wrap;html=1;" vertex="1" parent="1">
          <mxGeometry x="50" y="565" width="80" height="60" as="geometry" />
        </mxCell>
        <mxCell id="tpnDDfJuSR5OSDZnDv4p-15" value="proto消息封装" style="rounded=1;whiteSpace=wrap;html=1;" vertex="1" parent="1">
          <mxGeometry x="150" y="565" width="80" height="60" as="geometry" />
        </mxCell>
        <mxCell id="tpnDDfJuSR5OSDZnDv4p-16" value="" style="shape=flexArrow;endArrow=classic;html=1;rounded=0;exitX=1.016;exitY=0.549;exitDx=0;exitDy=0;exitPerimeter=0;" edge="1" parent="1" source="tpnDDfJuSR5OSDZnDv4p-8">
          <mxGeometry width="50" height="50" relative="1" as="geometry">
            <mxPoint x="330" y="680" as="sourcePoint" />
            <mxPoint x="370" y="603" as="targetPoint" />
          </mxGeometry>
        </mxCell>
        <mxCell id="tpnDDfJuSR5OSDZnDv4p-17" value="数据库" style="shape=cylinder3;whiteSpace=wrap;html=1;boundedLbl=1;backgroundOutline=1;size=15;" vertex="1" parent="1">
          <mxGeometry x="90" y="730" width="110" height="80" as="geometry" />
        </mxCell>
        <mxCell id="tpnDDfJuSR5OSDZnDv4p-18" value="用户界面" style="shape=internalStorage;whiteSpace=wrap;html=1;backgroundOutline=1;" vertex="1" parent="1">
          <mxGeometry x="384" y="580" width="217" height="120" as="geometry" />
        </mxCell>
      </root>
    </mxGraphModel>
  </diagram>
</mxfile>
